<svg width="64" height="25" viewBox="0 0 64 25" fill="none" xmlns="http://www.w3.org/2000/svg">
<g clip-path="url(#clip0_16_21)">
<path d="M1.776 18V5.472H4.848V8.064H4.968C5.048 7.728 5.168 7.408 5.328 7.104C5.504 6.784 5.728 6.504 6 6.264C6.272 6.024 6.592 5.832 6.96 5.688C7.344 5.544 7.784 5.472 8.28 5.472H8.952V8.376H7.992C6.952 8.376 6.168 8.528 5.64 8.832C5.112 9.136 4.848 9.632 4.848 10.32V18H1.776ZM14.7047 18.288C13.7767 18.288 12.9447 18.136 12.2087 17.832C11.4887 17.512 10.8727 17.072 10.3607 16.512C9.86469 15.936 9.48069 15.248 9.20869 14.448C8.93669 13.632 8.80069 12.72 8.80069 11.712C8.80069 10.72 8.92869 9.824 9.18469 9.024C9.45669 8.224 9.84069 7.544 10.3367 6.984C10.8327 6.408 11.4407 5.968 12.1607 5.664C12.8807 5.344 13.6967 5.184 14.6087 5.184C15.5847 5.184 16.4327 5.352 17.1527 5.688C17.8727 6.024 18.4647 6.48 18.9287 7.056C19.3927 7.632 19.7367 8.304 19.9607 9.072C20.2007 9.824 20.3207 10.632 20.3207 11.496V12.504H11.9927V12.816C11.9927 13.728 12.2487 14.464 12.7607 15.024C13.2727 15.568 14.0327 15.84 15.0407 15.84C15.8087 15.84 16.4327 15.68 16.9127 15.36C17.4087 15.04 17.8487 14.632 18.2327 14.136L19.8887 15.984C19.3767 16.704 18.6727 17.272 17.7767 17.688C16.8967 18.088 15.8727 18.288 14.7047 18.288ZM14.6567 7.488C13.8407 7.488 13.1927 7.76 12.7127 8.304C12.2327 8.848 11.9927 9.552 11.9927 10.416V10.608H17.1287V10.392C17.1287 9.528 16.9127 8.832 16.4807 8.304C16.0647 7.76 15.4567 7.488 14.6567 7.488ZM24.0606 18L19.8846 5.472H22.9086L24.6606 10.872L25.8846 15.336H26.0526L27.2766 10.872L28.9806 5.472H31.9086L27.7086 18H24.0606ZM37.395 18.288C36.467 18.288 35.635 18.136 34.899 17.832C34.179 17.512 33.563 17.072 33.051 16.512C32.555 15.936 32.171 15.248 31.899 14.448C31.627 13.632 31.491 12.72 31.491 11.712C31.491 10.72 31.619 9.824 31.875 9.024C32.147 8.224 32.531 7.544 33.027 6.984C33.523 6.408 34.131 5.968 34.851 5.664C35.571 5.344 36.387 5.184 37.299 5.184C38.275 5.184 39.123 5.352 39.843 5.688C40.563 6.024 41.155 6.48 41.619 7.056C42.083 7.632 42.427 8.304 42.651 9.072C42.891 9.824 43.011 10.632 43.011 11.496V12.504H34.683V12.816C34.683 13.728 34.939 14.464 35.451 15.024C35.963 15.568 36.723 15.84 37.731 15.84C38.499 15.84 39.123 15.68 39.603 15.36C40.099 15.04 40.539 14.632 40.923 14.136L42.579 15.984C42.067 16.704 41.363 17.272 40.467 17.688C39.587 18.088 38.563 18.288 37.395 18.288ZM37.347 7.488C36.531 7.488 35.883 7.76 35.403 8.304C34.923 8.848 34.683 9.552 34.683 10.416V10.608H39.819V10.392C39.819 9.528 39.603 8.832 39.171 8.304C38.755 7.76 38.147 7.488 37.347 7.488ZM44.2738 18V5.472H47.3458V8.064H47.4658C47.5458 7.728 47.6658 7.408 47.8258 7.104C48.0018 6.784 48.2258 6.504 48.4978 6.264C48.7698 6.024 49.0898 5.832 49.4578 5.688C49.8418 5.544 50.2818 5.472 50.7778 5.472H51.4498V8.376H50.4898C49.4498 8.376 48.6658 8.528 48.1378 8.832C47.6098 9.136 47.3458 9.632 47.3458 10.32V18H44.2738ZM52.2557 0.24H55.3277V7.536H55.4237C55.6477 6.816 56.0717 6.248 56.6957 5.832C57.3197 5.4 58.0477 5.184 58.8797 5.184C60.4797 5.184 61.6957 5.752 62.5277 6.888C63.3757 8.008 63.7997 9.616 63.7997 11.712C63.7997 13.824 63.3757 15.448 62.5277 16.584C61.6957 17.72 60.4797 18.288 58.8797 18.288C58.0477 18.288 57.3197 18.072 56.6957 17.64C56.0877 17.208 55.6637 16.632 55.4237 15.912H55.3277V18H52.2557V0.24ZM57.8957 15.744C58.6957 15.744 59.3437 15.48 59.8397 14.952C60.3357 14.424 60.5837 13.712 60.5837 12.816V10.656C60.5837 9.76 60.3357 9.048 59.8397 8.52C59.3437 7.976 58.6957 7.704 57.8957 7.704C57.1597 7.704 56.5437 7.888 56.0477 8.256C55.5677 8.624 55.3277 9.112 55.3277 9.72V13.704C55.3277 14.36 55.5677 14.864 56.0477 15.216C56.5437 15.568 57.1597 15.744 57.8957 15.744Z" fill="white"/>
<rect x="1" y="21" width="25" height="4" fill="#FF2056"/>
<rect x="29" y="21" width="16" height="4" fill="#FF2056"/>
<rect x="48" y="21" width="9" height="4" fill="#FF2056"/>
<rect x="60" y="21" width="4" height="4" fill="#FF2056"/>
</g>
<defs>
<clipPath id="clip0_16_21">
<rect width="64" height="25" fill="white"/>
</clipPath>
</defs>
</svg>
